<?xml version="1.0"?>
<svg width="552.8" height="205.3" xmlns="http://www.w3.org/2000/svg" xmlns:svg="http://www.w3.org/2000/svg" xmlns:xlink="http://www.w3.org/1999/xlink">
 <style>.st0{fill:#fff}.st1{clip-path:url(#SVGID_2_)}.st2{clip-path:url(#SVGID_4_)}.st3{clip-path:url(#SVGID_6_)}.st4{clip-path:url(#SVGID_8_)}.st5{fill:#fff;stroke:#000;stroke-width:4;stroke-miterlimit:10}.st6{clip-path:url(#SVGID_8_)}.st6,.st7{fill:none;stroke:#000;stroke-width:4;stroke-miterlimit:10}.st8,.st9{clip-path:url(#SVGID_10_)}.st9{fill:none;stroke:#000;stroke-width:4;stroke-miterlimit:10}</style>
 <title>rs_school_js</title>
 <defs>
  <ellipse cx="420.5" cy="67.9" id="SVGID_1_" rx="63" ry="51.8" transform="rotate(-37.001 420.46 67.88)"/>
  <symbol height="512px" id="svg_31" version="1.1" viewBox="0 0 569 512" width="569px" xmlns="http://www.w3.org/2000/svg" xmlns:xlink="http://www.w3.org/1999/xlink">
   <title>React-Logo-Filled (1)</title>
   <g fill="none" fill-rule="evenodd" id="svg_27">
    <g fill="#087EA4" fill-rule="nonzero" id="svg_28">
     <path d="m285.5,201c-30.1,0 -54.5,24.4 -54.5,54.5c0,30.1 24.4,54.5 54.5,54.5c30.1,0 54.5,-24.4 54.5,-54.5c0,-30.1 -24.4,-54.5 -54.5,-54.5" id="svg_30"/>
     <path d="m568.96,255.99c0,-42.78 -39.62,-80.31 -102.71,-105c0.84,-5.57 1.61,-11.07 2.15,-16.47c6.22,-61.48 -8.59,-105.85 -41.69,-124.97c-37.03,-21.38 -89.34,-5.86 -142.23,36.47c-52.89,-42.33 -105.2,-57.85 -142.23,-36.47c-33.1,19.12 -47.91,63.49 -41.69,124.97c0.54,5.4 1.29,10.92 2.15,16.51c-5.26,2 -10.42,4.13 -15.38,6.36c-56.32,25.32 -87.33,60.38 -87.33,98.6c0,42.79 39.62,80.32 102.71,105.01c-0.86,5.57 -1.61,11.07 -2.15,16.47c-6.22,61.48 8.59,105.85 41.69,124.96c11.38,6.46 24.27,9.76 37.35,9.56c31.36,0 67.97,-16.5 104.88,-46.02c36.89,29.52 73.52,46.02 104.92,46.02c13.08,0.19 25.97,-3.11 37.35,-9.56c33.1,-19.11 47.91,-63.48 41.69,-124.96c-0.54,-5.4 -1.31,-10.9 -2.15,-16.47c63.09,-24.65 102.71,-62.24 102.71,-105.01m-179.84,-228.89c8.41,-0.2 16.72,1.84 24.08,5.91c22.98,13.27 33.3,49.27 28.28,98.76c-0.34,3.37 -0.74,6.79 -1.22,10.22c-26.23,-7.9 -53.09,-13.54 -80.29,-16.85c-16.48,-21.92 -34.82,-42.38 -54.8,-61.17c31.38,-24.26 60.82,-36.87 83.93,-36.87m-10.78,283.11c-10.16,17.62 -21.21,34.71 -33.12,51.2c-20.19,2.07 -40.48,3.1 -60.78,3.09c-20.29,0.01 -40.57,-1.02 -60.76,-3.09c-11.88,-16.49 -22.9,-33.58 -33.02,-51.2c-10.15,-17.58 -19.37,-35.68 -27.64,-54.22c8.27,-18.54 17.49,-36.63 27.64,-54.21c10.1,-17.55 21.09,-34.58 32.92,-51.02c20.22,-2.12 40.55,-3.18 60.88,-3.17c20.29,-0.01 40.57,1.02 60.76,3.09c11.87,16.47 22.9,33.52 33.04,51.1c10.14,17.58 19.36,35.68 27.64,54.21c-8.28,18.54 -17.5,36.64 -27.64,54.22m41.44,-20.08c6.38,17.37 11.6,35.15 15.66,53.2c-17.6,5.49 -35.54,9.82 -53.71,12.96c6.9,-10.42 13.59,-21.25 20.07,-32.51c6.4,-11.12 12.4,-22.35 18.07,-33.57m-173.45,100.17c12.49,0.76 25.23,1.2 38.14,1.2c12.91,0 25.73,-0.44 38.24,-1.2c-11.86,14.2 -24.63,27.62 -38.24,40.15c-13.58,-12.53 -26.32,-25.94 -38.14,-40.15zm-59.05,-34.14c-18.17,-3.12 -36.12,-7.43 -53.73,-12.91c4.04,-18.02 9.25,-35.77 15.59,-53.12c5.58,11.22 11.57,22.45 18.07,33.57c6.5,11.12 13.23,22.08 20.07,32.51m-38.14,-134.53c-6.32,-17.29 -11.52,-34.97 -15.55,-52.93c17.56,-5.48 35.47,-9.82 53.59,-12.99c-6.86,10.38 -13.59,21.15 -20.07,32.37c-6.48,11.22 -12.41,22.31 -18.07,33.55m173.55,-100.17c-12.49,-0.76 -25.23,-1.2 -38.24,-1.2c-12.9,0 -25.61,0.4 -38.14,1.2c11.82,-14.21 24.56,-27.62 38.14,-40.16c13.61,12.54 26.39,25.95 38.24,40.16zm79.08,66.62c-6.5,-11.27 -13.23,-22.11 -20.17,-32.53c18.21,3.14 36.2,7.47 53.85,12.97c-4.05,18.03 -9.26,35.78 -15.59,53.13c-5.58,-11.22 -11.59,-22.45 -18.07,-33.55m-274.2,-56.44c-5.08,-49.47 5.3,-85.49 28.26,-98.76c7.36,-4.07 15.68,-6.1 24.08,-5.91c23.11,0 52.55,12.61 83.93,36.87c-20,18.8 -38.34,39.28 -54.84,61.21c-27.19,3.33 -54.05,8.94 -80.29,16.79c-0.46,-3.43 -0.88,-6.83 -1.2,-10.2m-29.01,50.32c3.09,-1.34 6.25,-2.68 9.46,-4.02c6.31,26.65 14.87,52.71 25.59,77.9c-10.74,25.25 -19.31,51.37 -25.61,78.07c-51.15,-20.98 -80.79,-50.06 -80.79,-78.07c0,-26.54 26.09,-53.46 71.35,-73.88zm57.33,296.85c-22.96,-13.27 -33.34,-49.29 -28.26,-98.76c0.32,-3.37 0.74,-6.77 1.2,-10.22c26.23,7.9 53.09,13.53 80.29,16.84c16.49,21.93 34.82,42.41 54.8,61.22c-43.74,33.79 -83.7,44.94 -107.97,30.92m285.66,-98.76c5.02,49.49 -5.3,85.49 -28.28,98.76c-24.25,14.06 -64.23,2.87 -107.95,-30.92c19.97,-18.81 38.3,-39.29 54.78,-61.22c27.2,-3.3 54.06,-8.94 80.29,-16.84c0.48,3.45 0.88,6.85 1.22,10.22m19.63,-46.18c-6.32,-26.69 -14.9,-52.79 -25.63,-78.03c10.73,-25.25 19.3,-51.36 25.61,-78.06c51.05,20.98 80.77,50.06 80.77,78.06c0,28.01 -29.64,57.09 -80.79,78.07" id="svg_29"/>
    </g>
   </g>
  </symbol>
 </defs>
 <clipPath id="SVGID_2_">
  <use id="svg_1" overflow="visible" xlink:href="#SVGID_1_"/>
 </clipPath>
 <g class="layer">
  <title>Layer 1</title>
  <path d="m285.4,68l26.3,-1.7c0.6,4.3 1.7,7.5 3.5,9.8c2.9,3.6 6.9,5.4 12.2,5.4c3.9,0 7,-0.9 9.1,-2.8c2,-1.5 3.2,-3.9 3.2,-6.4c0,-2.4 -1.1,-4.7 -3,-6.2c-2,-1.8 -6.7,-3.6 -14.1,-5.2c-12.1,-2.7 -20.8,-6.3 -25.9,-10.9c-5.1,-4.3 -8,-10.6 -7.8,-17.3c0,-4.6 1.4,-9.2 4,-13c3,-4.3 7.1,-7.7 12,-9.6c5.3,-2.3 12.7,-3.5 22,-3.5c11.4,0 20.1,2.1 26.1,6.4c6,4.2 9.6,11 10.7,20.3l-26,1.5c-0.7,-4 -2.1,-6.9 -4.4,-8.8s-5.3,-2.8 -9.2,-2.8c-3.2,0 -5.6,0.7 -7.2,2c-1.5,1.2 -2.5,3 -2.4,5c0,1.5 0.8,2.9 2,3.8c1.3,1.2 4.4,2.3 9.3,3.3c12.1,2.6 20.7,5.2 26,7.9c5.3,2.7 9.1,6 11.4,9.9c2.4,4 3.6,8.6 3.5,13.3c0,5.6 -1.6,11.2 -4.8,15.9c-3.3,4.9 -7.9,8.7 -13.3,11c-5.7,2.5 -12.9,3.8 -21.5,3.8c-15.2,0 -25.7,-2.9 -31.6,-8.8s-9.4,-13.3 -10.1,-22.3zm-279.1,29.6l0,-89.4l46.1,0c8.5,0 15.1,0.7 19.6,2.2c4.4,1.4 8.3,4.3 10.9,8.2c2.9,4.3 4.3,9.3 4.2,14.5c0.3,8.8 -4.2,17.2 -11.9,21.6c-3,1.7 -6.3,2.9 -9.7,3.5c2.5,0.7 5,1.9 7.2,3.3c1.7,1.4 3.1,3 4.4,4.7c1.5,1.7 2.8,3.6 3.9,5.6l13.4,25.9l-31.4,0l-14.8,-27.5c-1.9,-3.5 -3.5,-5.8 -5,-6.9c-2,-1.4 -4.4,-2.1 -6.8,-2.1l-2.4,0l0,36.3l-27.7,0l0,0.1zm27.7,-53.2l11.7,0c2.5,-0.2 4.9,-0.6 7.3,-1.2c1.8,-0.3 3.4,-1.3 4.5,-2.8c2.7,-3.6 2.3,-8.7 -1,-11.8c-1.8,-1.5 -5.3,-2.3 -10.3,-2.3l-12.2,0l0,18.1zm-34,129.8l26.3,-1.7c0.6,4.3 1.7,7.5 3.5,9.8c2.8,3.6 6.9,5.5 12.2,5.5c3.9,0 7,-0.9 9.1,-2.8c2,-1.6 3.2,-3.9 3.2,-6.4c0,-2.4 -1.1,-4.7 -3,-6.2c-2,-1.8 -6.7,-3.6 -14.2,-5.2c-12.1,-2.7 -20.8,-6.3 -25.9,-10.9c-5.1,-4.3 -8,-10.6 -7.8,-17.3c0,-4.6 1.4,-9.2 4,-13c3,-4.3 7.1,-7.7 12,-9.6c5.3,-2.3 12.7,-3.5 22,-3.5c11.4,0 20.1,2.1 26.1,6.4s9.5,11 10.6,20.3l-26,1.5c-0.7,-4 -2.1,-6.9 -4.4,-8.8c-2.2,-1.9 -5.3,-2.8 -9.2,-2.7c-3.2,0 -5.6,0.7 -7.2,2.1c-1.6,1.2 -2.5,3 -2.4,5c0,1.5 0.8,2.9 2,3.8c1.3,1.2 4.4,2.3 9.3,3.3c12.1,2.6 20.7,5.2 26,7.9c5.3,2.7 9.1,6 11.4,9.9c2.4,4 3.6,8.6 3.6,13.2c0,5.6 -1.7,11.1 -4.8,15.8c-3.3,4.9 -7.9,8.7 -13.3,11c-5.7,2.5 -12.9,3.8 -21.5,3.8c-15.2,0 -25.7,-2.9 -31.6,-8.8c-5.9,-6 -9.2,-13.4 -10,-22.4z" id="svg_2"/>
  <path d="m133,167.2l24.2,7.3c-1.3,6.1 -4,11.9 -7.7,17c-3.4,4.5 -7.9,8 -13,10.3c-5.2,2.3 -11.8,3.5 -19.8,3.5c-9.7,0 -17.7,-1.4 -23.8,-4.2c-6.2,-2.8 -11.5,-7.8 -16,-14.9c-4.5,-7.1 -6.7,-16.2 -6.7,-27.3c0,-14.8 3.9,-26.2 11.8,-34.1s19,-11.9 33.4,-11.9c11.3,0 20.1,2.3 26.6,6.8c6.4,4.6 11.2,11.6 14.4,21l-24.4,5.4c-0.6,-2.1 -1.5,-4.2 -2.7,-6c-1.5,-2.1 -3.4,-3.7 -5.7,-4.9c-2.3,-1.2 -4.9,-1.7 -7.5,-1.7c-6.3,0 -11.1,2.5 -14.4,7.6c-2.5,3.7 -3.8,9.6 -3.8,17.6c0,9.9 1.5,16.7 4.5,20.4c3,3.7 7.2,5.5 12.7,5.5c5.3,0 9.3,-1.5 12,-4.4c2.7,-3.1 4.7,-7.4 5.9,-13zm56.5,-52.8l27.6,0l0,31.3l30.2,0l0,-31.3l27.8,0l0,89.4l-27.8,0l0,-36.2l-30.2,0l0,36.2l-27.6,0l0,-89.4z" id="svg_3"/>
  <path d="m271.3,159.1c0,-14.6 4.1,-26 12.2,-34.1c8.1,-8.1 19.5,-12.2 34,-12.2c14.9,0 26.3,4 34.4,12s12.1,19.2 12.1,33.6c0,10.5 -1.8,19 -5.3,25.7c-3.4,6.6 -8.7,12 -15.2,15.6c-6.7,3.7 -15,5.6 -24.9,5.6c-10.1,0 -18.4,-1.6 -25,-4.8c-6.8,-3.4 -12.4,-8.7 -16.1,-15.2c-4.1,-7 -6.2,-15.7 -6.2,-26.2zm27.6,0.1c0,9 1.7,15.5 5,19.5c3.3,3.9 7.9,5.9 13.7,5.9c5.9,0 10.5,-1.9 13.8,-5.8s4.9,-10.8 4.9,-20.8c0,-8.4 -1.7,-14.6 -5.1,-18.4c-3.4,-3.9 -8,-5.8 -13.8,-5.8c-5.1,-0.2 -10,2 -13.4,5.9c-3.4,3.9 -5.1,10.4 -5.1,19.5zm93.4,-0.1c0,-14.6 4.1,-26 12.2,-34.1c8.1,-8.1 19.5,-12.2 34,-12.2c14.9,0 26.4,4 34.4,12s12.1,19.2 12.1,33.6c0,10.5 -1.8,19 -5.3,25.7c-3.4,6.6 -8.7,12 -15.2,15.6c-6.7,3.7 -15,5.6 -24.9,5.6c-10.1,0 -18.4,-1.6 -25,-4.8c-6.8,-3.4 -12.4,-8.7 -16.1,-15.2c-4.1,-7 -6.2,-15.7 -6.2,-26.2zm27.6,0.1c0,9 1.7,15.5 5,19.5c3.3,3.9 7.9,5.9 13.7,5.9c5.9,0 10.5,-1.9 13.8,-5.8c3.3,-3.9 4.9,-10.8 4.9,-20.8c0,-8.4 -1.7,-14.6 -5.1,-18.4c-3.4,-3.9 -8,-5.8 -13.8,-5.8c-5.1,-0.2 -10.1,2 -13.4,5.9c-3.4,3.9 -5.1,10.4 -5.1,19.5z" id="svg_4"/>
  <path d="m482.1,114.4l27.6,0l0,67.4l43.1,0l0,22l-70.8,0l0,-89.4l0.1,0z" id="svg_5"/>
  <ellipse class="st0" cx="439.5" cy="55.87" id="svg_6" rx="64.78" ry="59.4" transform="matrix(1 0 0 1 0 0) rotate(-37.001 439.504 55.8719)"/>
  <use id="svg_32" transform="matrix(0.252605 0 0 0.24218 -480.376 -51.6317)" x="3266.87" xlink:href="#svg_31" y="183.43"/>
 </g>
</svg>